<svg viewBox="0 0 1044 166" xmlns="http://www.w3.org/2000/svg" xmlns:xlink="http://www.w3.org/1999/xlink" aria-label="Neo4j AuraDB" width="12em" height="3em" class="sc-fTNIDv ieXpgb"><title>Neo4j AuraDB</title><defs><filter color-interpolation-filters="auto" id="aura_db_svg__a"><feColorMatrix in="SourceGraphic" values="0 0 0 0 1.000000 0 0 0 0 1.000000 0 0 0 0 1.000000 0 0 0 1.000000 0"></feColorMatrix></filter><filter color-interpolation-filters="auto" id="aura_db_svg__d"><feColorMatrix in="SourceGraphic" values="0 0 0 0 1.000000 0 0 0 0 1.000000 0 0 0 0 1.000000 0 0 0 1.000000 0"></feColorMatrix></filter><path id="aura_db_svg__b" d="M0 0h30v30H0z"></path><path id="aura_db_svg__e" d="M0 0h72v86H0z"></path></defs><g fill="none" fill-rule="evenodd"><path d="M94 34c-27.525 0-46 16.094-46 47.339V103.6a20.573 20.573 0 018.907-2.041c3.227 0 6.276.765 9.003 2.09V81.34C65.91 61.076 77.034 50.66 94 50.66c16.968 0 28.09 10.415 28.09 30.678V130H140V81.339C140 49.906 121.525 34 94 34M231.134 73.578c-3.586-14.89-15.85-22.992-30.944-22.992-15.475 0-27.17 8.29-30.757 22.992h61.701zM150 83c0-28.268 20.754-49 50.19-49C229.624 34 250 54.732 250 83v6.597h-81.132c2.64 16.583 15.095 25.817 31.322 25.817 12.074 0 20.566-3.769 26.038-11.87h19.81C238.87 120.883 221.89 132 200.19 132 170.754 132 150 111.27 150 83zM339.956 82.999c0-18.847-12.783-32.416-31.956-32.416-19.173 0-31.953 13.569-31.953 32.416 0 18.846 12.78 32.415 31.953 32.415 19.173 0 31.956-13.569 31.956-32.415m-81.956 0C258 54.73 278.678 34 308 34s50 20.73 50 48.999C358 111.27 337.322 132 308 132s-50-20.73-50-49.001M460 148.597h2.082c11.56 0 15.917-5.073 15.917-18.22V38H496v91.249c0 22.916-9.093 34.751-32.213 34.751H460v-15.403zM385.171 94.704a4.566 4.566 0 00-.827 2.634c0 2.505 1.975 4.527 4.437 4.527h44.259V44.138c-.007-2.983-2.138-4.07-3.075-4.384-.35-.115-.95-.224-1.597-.224-1.079 0-2.414.384-3.51 1.894L385.18 94.69l-.01.013zM450.711 140h-17.67v-22.182h-44.812c-8.943 0-16.702-4.46-20.253-11.634-3.32-6.717-2.418-14.68 2.414-21.309l40.274-53.693c5.8-7.956 15.534-11.106 24.777-8.005 9.251 3.096 15.244 11.498 15.27 21.405v57.283H464v15.953h-13.29V140z" fill="#FFF"></path><g filter="url(#aura_db_svg__a)"><g transform="translate(472)"><mask id="aura_db_svg__c" fill="#fff"><use xlink:href="#aura_db_svg__b"></use></mask><path d="M0 15.001C0 23.271 6.727 30 15 30c8.272 0 15.002-6.73 15.002-14.999C30.002 6.73 23.272 0 14.999 0 6.727 0 0 6.73 0 15.001z" fill="#FFF" mask="url(#aura_db_svg__c)"></path></g></g><g filter="url(#aura_db_svg__d)"><g transform="translate(0 80)"><mask id="aura_db_svg__f" fill="#fff"><use xlink:href="#aura_db_svg__e"></use></mask><path d="M56.558 27.749c-3.486 0-6.694 1.16-9.28 3.09L30.293 19.377c.372-1.315.587-2.695.587-4.127C30.88 6.842 23.954 0 15.44 0 6.926 0-.001 6.842-.001 15.25c0 8.41 6.927 15.25 15.442 15.25a15.46 15.46 0 009.28-3.088l16.984 11.463A15.016 15.016 0 0041.118 43c0 1.43.212 2.81.587 4.124L24.722 58.588a15.463 15.463 0 00-9.281-3.09c-8.515 0-15.442 6.841-15.442 15.252C-.001 79.16 6.926 86 15.44 86c8.513 0 15.44-6.84 15.44-15.25 0-1.432-.215-2.812-.587-4.124l16.983-11.465a15.463 15.463 0 009.28 3.09c8.516 0 15.443-6.839 15.443-15.25 0-8.41-6.927-15.252-15.442-15.252" fill="#FFF" mask="url(#aura_db_svg__f)"></path></g></g><path d="M576.17 55.118c19.656 0 33.39 13.482 33.39 33.138V119h-7.812v-15.372c-4.41 11.088-14.742 17.01-26.838 17.01-17.514 0-32.256-12.474-32.256-32.382 0-19.404 13.86-33.138 33.516-33.138zm73.18 1.638v32.508c0 15.246 8.82 23.562 22.302 23.562s22.302-8.316 22.302-23.562V56.756h8.442v32.508c0 20.664-12.348 31.374-30.744 31.374s-30.744-10.71-30.744-31.374V56.756h8.442zm194.996-1.638c19.656 0 33.39 13.482 33.39 33.138V119h-7.812v-15.372c-4.41 11.088-14.742 17.01-26.838 17.01-17.514 0-32.256-12.474-32.256-32.382 0-19.404 13.86-33.138 33.516-33.138zm87.388.277c22.325 0 34.278 12.941 34.278 32.303 0 19.361-11.953 32.302-34.278 32.302h-23.115V55.395zm91.1 0c11.756 0 18.177 6.816 18.177 16.398 0 6.817-3.458 12.15-9.286 14.62v.198c7.606 1.976 12.25 8.298 12.25 16.3 0 9.878-6.62 17.089-18.572 17.089h-33.784V55.395zm-262.882-.277c15.498 0 26.082 8.694 26.082 26.712v.756h-8.316v-.882c0-12.978-7.182-18.774-17.766-18.774-10.71 0-17.766 5.796-17.766 18.774V119h-8.442V81.704c0-17.892 10.71-26.586 26.208-26.586zm171.782 6.797h-16.003v51.565h16.003c18.275 0 27.166-10.273 27.166-25.782 0-15.51-8.891-25.783-27.166-25.783zm92.977 28.45h-25.98v23.115h25.783c8.297 0 12.249-4.84 12.249-11.557 0-6.718-4.544-11.558-12.052-11.558zM576.17 62.93c-14.868 0-24.948 10.584-24.948 24.948s10.08 24.948 24.948 24.948 24.948-10.584 24.948-24.948-10.08-24.948-24.948-24.948zm268.176 0c-14.868 0-24.948 10.584-24.948 24.948s10.08 24.948 24.948 24.948 24.948-10.584 24.948-24.948-10.08-24.948-24.948-24.948zm177.698-1.015h-23.313v21.93h23.61c7.408 0 11.557-4.544 11.557-10.965 0-6.42-3.556-10.965-11.854-10.965z" fill="#FFF"></path></g></svg>
